<?xml version="1.0" encoding="utf-8"?>
<!-- Generator: Adobe Illustrator 16.0.0, SVG Export Plug-In . SVG Version: 6.00 Build 0)  -->
<!DOCTYPE svg PUBLIC "-//W3C//DTD SVG 1.1//EN" "http://www.w3.org/Graphics/SVG/1.1/DTD/svg11.dtd">
<svg version="1.1" id="Layer_1" xmlns="http://www.w3.org/2000/svg" xmlns:xlink="http://www.w3.org/1999/xlink" x="0px" y="0px"
	 width="426.21px" height="221.71px" viewBox="0 0 426.21 221.71" enable-background="new 0 0 426.21 221.71" xml:space="preserve">
<g>
	<g>
		<g>
			<path fill="#58595B" d="M115.278,195.649c-1.137-0.51-2.271-0.041-2.781,1.129c-1.066,2.463-2.309,4.811-4.301,6.676
				c-0.871,0.816-1.859,1.416-3.057,1.607c-1,0.16-1.813-0.156-2.342-1.033c-0.232-0.391-0.412-0.832-0.527-1.275
				c-0.363-1.396-0.307-2.82,0.066-4.188c0.568-2.088,1.199-4.164,1.926-6.201c1.535-4.309,3.156-8.586,4.729-12.883
				c0.145-0.393,0.34-0.574,0.785-0.557c0.895,0.033,1.791,0.014,2.686,0.008c1.254-0.006,2.178-0.926,2.188-2.184
				c0.01-0.725-0.293-1.043-1.023-1.053c-0.842-0.01-1.684,0.002-2.529-0.004c-0.176-0.002-0.355-0.037-0.607-0.066
				c0.232-0.641,0.455-1.195,0.635-1.764c0.369-1.162,0.768-2.314,1.057-3.496c0.164-0.678-0.215-1.221-0.895-1.254
				c-1.26-0.059-2.541-0.076-3.791,0.066c-1.127,0.131-1.674,1.07-2.076,2.033c-0.541,1.301-1.061,2.613-1.553,3.934
				c-0.16,0.434-0.396,0.586-0.838,0.557c-0.445-0.033-0.895-0.014-1.344-0.008c-1.154,0.021-2.115,0.971-2.158,2.133
				c-0.031,0.781,0.275,1.1,1.064,1.105c0.545,0.006,1.086,0.002,1.699,0.002c-0.066,0.236-0.094,0.387-0.146,0.521
				c-0.805,2.143-1.654,4.268-2.412,6.428c-0.957,2.721-1.871,5.461-2.74,8.215c-0.365,1.156-0.533,2.371-1.068,3.488
				c-0.938,1.941-1.889,3.869-3.322,5.502c-0.795,0.904-1.689,1.666-2.91,1.939c-1.104,0.25-1.996-0.209-2.395-1.262
				c-0.383-1.01-0.363-2.059-0.264-3.105c0.176-1.898,0.723-3.715,1.334-5.506c1.877-5.5,3.785-10.99,5.674-16.486
				c0.236-0.682,0.477-1.367,0.648-2.066c0.15-0.611-0.186-0.957-0.793-0.818c-0.5,0.113-1.008,0.273-1.445,0.531
				c-1.729,1.023-3.432,2.096-5.141,3.15c-0.154,0.092-0.301,0.195-0.477,0.313c-0.08-0.195-0.133-0.318-0.184-0.445
				c-0.768-2.021-2.205-3.238-4.35-3.574c-1.158-0.184-2.299-0.094-3.416,0.268c-2.441,0.785-4.344,2.35-5.99,4.236
				c-3.184,3.641-5.203,7.908-6.6,12.498c-0.525,1.721-0.709,3.533-1.523,5.18c-0.895,1.809-1.793,3.605-3.129,5.139
				c-0.783,0.895-1.678,1.637-2.865,1.93c-1.23,0.305-2.141-0.199-2.533-1.402c-0.32-0.971-0.383-1.988-0.15-2.959
				c0.596-2.488,1.207-4.979,1.959-7.42c1.125-3.648,2.436-7.242,3.08-11.02c0.236-1.375,0.412-2.762,0.053-4.145
				c-0.318-1.252-1.104-2.025-2.381-2.289c-1.145-0.236-2.258-0.119-3.35,0.256c-2.545,0.873-4.736,2.35-6.824,3.996
				c-0.912,0.721-1.777,1.5-2.729,2.307c0.061-0.219,0.09-0.367,0.141-0.504c0.984-2.701,1.979-5.395,2.953-8.098
				c0.715-1.988,1.439-3.977,2.096-5.986c0.383-1.168-0.018-1.67-1.252-1.65c-1.23,0.021-2.463,0.123-3.697,0.188
				c-0.154,0.006-0.307-0.008-0.459-0.02c-0.582-0.057-1.162-0.164-1.74-0.172c-4.424-0.07-8.83,0.16-13.221,0.707
				c-3.969,0.492-7.881,1.25-11.686,2.488c-3.59,1.166-7.008,2.676-9.949,5.105c-2.316,1.908-4.066,4.203-4.66,7.217
				c-0.404,2.055-0.301,4.059,0.955,5.838c1.311,1.852,3.074,2.938,5.396,2.924c1.053-0.008,1.289-0.387,0.953-1.371
				c-0.049-0.146-0.109-0.289-0.166-0.434c-0.787-2.047-1.135-4.15-0.695-6.322c0.605-3,2.469-5.082,4.971-6.672
				c2.727-1.732,5.77-2.645,8.891-3.34c0.539-0.119,1.084-0.205,1.715-0.324c-0.082,0.27-0.123,0.414-0.172,0.557
				c-1.084,2.992-2.189,5.973-3.244,8.975c-1.652,4.703-3.123,9.477-5.143,14.047c-1.037,2.35-2.174,4.645-3.816,6.645
				c-1.219,1.48-2.645,2.643-4.635,2.941c-2.025,0.303-3.521-0.924-3.607-2.963C5.755,200.465,6.3,199,7.185,197.694
				c0.816-1.203,1.797-2.293,2.734-3.41c0.488-0.578,0.463-0.881-0.219-1.221c-0.137-0.066-0.283-0.148-0.434-0.166
				c-0.914-0.104-1.838-0.295-2.75-0.256c-1.717,0.072-3.217,0.711-4.297,2.121c-1.021,1.328-1.734,2.803-2.053,4.457
				c-0.865,4.459,1.699,8.436,6.127,9.475c2.99,0.701,5.727-0.008,8.281-1.58c2.965-1.826,5.152-4.426,7.066-7.271
				c2.717-4.039,4.656-8.461,6.285-13.025c1.822-5.102,3.615-10.213,5.416-15.324c0.111-0.328,0.26-0.508,0.648-0.516
				c2.816-0.059,5.635-0.145,8.451-0.209c0.789-0.02,0.799,0,0.539,0.727c-1.363,3.805-2.738,7.605-4.105,11.408
				c-2.475,6.877-4.955,13.754-7.416,20.633c-0.486,1.359-1.021,2.709-0.992,4.193c0.021,0.973,0.52,1.51,1.49,1.547
				c0.719,0.029,1.443,0.021,2.166-0.006c1.164-0.045,2.031-0.574,2.527-1.654c0.23-0.502,0.486-0.992,0.672-1.508
				c1.596-4.416,3.17-8.838,4.773-13.25c0.355-0.982,0.652-2.037,1.244-2.865c1.23-1.734,2.58-3.393,3.994-4.984
				c1.496-1.691,3.186-3.191,5.146-4.344c0.527-0.313,1.107-0.568,1.691-0.746c0.717-0.221,1.088,0.104,1.086,0.848
				c-0.004,0.289-0.014,0.59-0.09,0.867c-0.359,1.275-0.705,2.553-1.119,3.811c-1.455,4.426-2.986,8.832-3.711,13.461
				c-0.287,1.826-0.453,3.658,0.061,5.471c0.725,2.568,2.238,4.371,4.979,4.85c1.494,0.26,2.943-0.027,4.32-0.666
				c2.365-1.094,4.139-2.863,5.645-4.938c0.084-0.111,0.176-0.217,0.303-0.373c0.195,0.566,0.35,1.057,0.529,1.537
				c1.59,4.273,5.711,5.736,9.629,3.414c1.674-0.99,2.971-2.379,4.104-3.934c0.4-0.549,0.775-1.113,1.201-1.723
				c0.094,0.508,0.16,0.943,0.256,1.379c0.373,1.727,1.064,3.285,2.549,4.346c1.771,1.266,3.734,1.279,5.727,0.678
				c2.629-0.795,4.541-2.582,6.221-4.66c0.17-0.207,0.336-0.416,0.553-0.686c0.209,0.604,0.359,1.129,0.568,1.629
				c0.975,2.297,2.625,3.773,5.166,4.039c1.979,0.207,3.844-0.273,5.533-1.301c4.232-2.566,6.686-6.479,8.219-11.059
				C116.079,196.37,115.804,195.883,115.278,195.649z M84.202,185.024c-0.592,5.631-2.701,10.73-5.572,15.547
				c-0.838,1.404-1.828,2.719-3.18,3.686c-0.465,0.332-1.014,0.588-1.563,0.752c-0.941,0.287-1.641-0.107-2.002-1.039
				c-0.104-0.27-0.203-0.551-0.244-0.838c-0.082-0.629-0.129-1.26-0.166-1.629c0.084-2.951,0.65-5.551,1.357-8.121
				c0.865-3.127,1.969-6.154,3.689-8.93c0.891-1.436,1.879-2.801,3.246-3.834c0.596-0.449,1.225-0.836,1.998-0.871
				c1.006-0.051,1.59,0.295,1.99,1.219C84.321,182.27,84.349,183.651,84.202,185.024z M159.36,212.741
				c-0.18,0.053-0.336,0.193-0.516,0.234c-0.883,0.203-1.766,0.543-2.652,0.545c-1.658,0-3.199-0.58-4.652-1.375
				c-2.191-1.199-4.012-2.891-5.91-4.477c-2.342-1.953-4.813-3.672-7.807-4.496c-0.061-0.018-0.119-0.057-0.246-0.117
				c0.1-0.123,0.156-0.213,0.229-0.277c1.727-1.549,3.014-3.43,4.072-5.477c1.912-3.703,3.029-7.664,3.732-11.752
				c0.584-3.396,1.293-6.756,2.66-9.938c0.723-1.688,1.594-3.287,2.918-4.584c0.883-0.867,1.902-1.484,3.191-1.477
				c0.961,0.006,1.645,0.498,1.813,1.439c0.117,0.646,0.137,1.344,0.031,1.992c-0.355,2.229-1.32,4.24-2.535,6.104
				c-1.064,1.639-2.295,3.174-3.479,4.73c-0.49,0.643-0.463,0.963,0.27,1.305c0.309,0.143,0.645,0.271,0.977,0.305
				c0.75,0.07,1.514,0.162,2.26,0.094c1.785-0.164,3.35-0.828,4.371-2.389c0.711-1.092,1.432-2.193,1.979-3.373
				c1.188-2.574,1.771-5.279,1.23-8.125c-0.529-2.766-1.99-4.789-4.801-5.574c-2.006-0.559-4.021-0.434-5.982,0.262
				c-2.752,0.973-4.797,2.848-6.457,5.176c-2.414,3.385-3.752,7.225-4.566,11.25c-0.598,2.945-1.027,5.926-1.576,8.879
				c-0.424,2.285-0.912,4.559-1.859,6.697c-0.762,1.711-1.887,3.043-3.838,3.416c-0.506,0.096-1.029,0.1-1.541,0.162
				c-0.844,0.1-1.463,0.732-1.533,1.553c-0.076,0.869,0.363,1.559,1.221,1.789c0.51,0.137,1.051,0.215,1.576,0.215
				c1.348,0.002,2.592,0.354,3.57,1.26c1.152,1.07,2.244,2.223,3.271,3.42c1.764,2.063,3.357,4.273,5.422,6.068
				c2.734,2.373,5.834,3.727,9.52,3.736c3.23,0.01,6.705-2.814,6.813-6.389c0.01-0.34-0.047-0.771-0.256-0.992
				C160.165,212.438,159.673,212.651,159.36,212.741z M171.503,173.928c1.967-0.004,3.615-1.674,3.592-3.639
				c-0.021-1.953-1.578-3.484-3.541-3.488c-2.039-0.002-3.59,1.514-3.596,3.523C167.95,172.311,169.544,173.932,171.503,173.928z
				 M244.882,196.543c-0.303,0.658-0.586,1.324-0.932,1.955c-1.959,3.557-4.68,6.066-8.918,6.568
				c-2.348,0.279-4.363-0.584-5.457-2.664c-0.457-0.865-0.699-1.855-0.959-2.813c-0.139-0.512-0.115-1.07-0.166-1.613
				c0.18-0.029,0.264-0.047,0.35-0.055c2.76-0.316,5.389-1.084,7.834-2.428c3.063-1.68,5.537-3.939,7.02-7.168
				c1.258-2.744,1.438-5.531,0.268-8.352c-1.357-3.273-4.357-4.85-7.807-4.127c-2.262,0.471-4.117,1.689-5.787,3.221
				c-2.322,2.131-4.086,4.689-5.51,7.482c-1.43,2.801-2.557,5.713-3.029,8.844c-0.08,0.508-0.057,1.059-0.246,1.52
				c-0.795,1.945-1.729,3.826-3.027,5.496c-0.764,0.984-1.604,1.896-2.779,2.408c-1.633,0.707-2.898,0.068-3.23-1.676
				c-0.322-1.707-0.127-3.414,0.369-5.047c0.908-2.977,1.873-5.938,2.914-8.869c2.291-6.451,4.646-12.877,6.965-19.316
				c0.256-0.711,0.482-1.438,0.648-2.172c0.213-0.951-0.137-1.506-1.104-1.588c-1.021-0.086-2.059-0.049-3.084,0.008
				c-1.064,0.059-1.84,0.639-2.322,1.58c-0.275,0.533-0.539,1.078-0.744,1.639c-1.754,4.779-3.52,9.555-5.227,14.352
				c-1.119,3.158-2.172,6.344-3.215,9.531c-0.4,1.221-0.586,2.521-1.068,3.707c-0.988,2.414-2.258,4.678-4.201,6.49
				c-0.875,0.814-1.863,1.414-3.061,1.605c-1,0.158-1.813-0.162-2.338-1.037c-0.236-0.393-0.412-0.834-0.529-1.279
				c-0.361-1.395-0.309-2.82,0.07-4.186c0.592-2.152,1.244-4.293,1.996-6.396c1.516-4.26,3.119-8.49,4.68-12.734
				c0.129-0.355,0.32-0.516,0.715-0.504c0.912,0.023,1.822,0.012,2.738,0.006c1.234-0.006,2.145-0.9,2.186-2.137
				c0.021-0.758-0.279-1.09-1.031-1.1c-0.842-0.01-1.688,0.002-2.529-0.004c-0.176-0.002-0.352-0.041-0.602-0.07
				c0.232-0.639,0.453-1.195,0.635-1.764c0.363-1.109,0.77-2.209,1.035-3.342c0.207-0.865-0.16-1.328-1.031-1.439
				c-0.732-0.092-1.473-0.072-2.211-0.098c-1.76-0.064-2.955,0.703-3.572,2.373c-0.467,1.258-0.998,2.492-1.461,3.75
				c-0.162,0.436-0.379,0.643-0.865,0.6c-0.441-0.041-0.891-0.014-1.34-0.008c-1.131,0.021-2.086,0.945-2.152,2.084
				c-0.047,0.811,0.264,1.148,1.068,1.154c0.541,0.006,1.084,0.002,1.693,0.002c-0.068,0.24-0.094,0.389-0.146,0.527
				c-0.813,2.156-1.67,4.295-2.43,6.473c-0.986,2.84-1.904,5.703-2.83,8.566c-0.266,0.813-0.359,1.691-0.688,2.471
				c-1.021,2.404-2.266,4.678-4.211,6.49c-0.861,0.801-1.83,1.391-3.01,1.594c-1.029,0.18-1.883-0.172-2.412-1.078
				c-0.223-0.379-0.393-0.805-0.5-1.234c-0.402-1.594-0.268-3.199,0.188-4.74c0.729-2.455,1.537-4.889,2.398-7.301
				c1.35-3.773,2.777-7.518,4.16-11.277c0.133-0.361,0.326-0.508,0.719-0.498c0.912,0.023,1.826,0.012,2.736,0.006
				c1.232-0.006,2.146-0.906,2.184-2.141c0.02-0.758-0.283-1.086-1.035-1.096c-0.846-0.01-1.686,0.002-2.531-0.004
				c-0.176-0.002-0.35-0.045-0.596-0.074c0.232-0.639,0.453-1.195,0.635-1.764c0.367-1.127,0.77-2.246,1.043-3.395
				c0.189-0.799-0.188-1.273-0.996-1.377c-0.744-0.092-1.506-0.074-2.262-0.104c-1.76-0.064-2.949,0.709-3.568,2.377
				c-0.486,1.307-1.025,2.592-1.52,3.893c-0.123,0.32-0.303,0.463-0.648,0.449c-0.5-0.02-0.998-0.01-1.498-0.002
				c-1.131,0.02-2.086,0.947-2.148,2.088c-0.047,0.807,0.266,1.143,1.07,1.148c0.543,0.006,1.086,0.002,1.693,0.002
				c-0.068,0.246-0.1,0.393-0.152,0.531c-0.293,0.773-0.6,1.541-0.881,2.316c-1.285,3.557-2.564,7.115-3.842,10.676
				c-0.516,1.438-0.635,2.979-1.277,4.395c-0.961,2.121-1.926,4.23-3.436,6.031c-0.855,1.014-1.82,1.879-3.18,2.16
				c-0.998,0.209-1.826-0.18-2.246-1.109c-0.141-0.311-0.23-0.648-0.285-0.984c-0.313-1.793-0.051-3.561,0.504-5.242
				c1.305-3.932,2.732-7.824,4.102-11.734c0.619-1.768,1.254-3.529,1.811-5.318c0.26-0.836-0.1-1.393-0.965-1.467
				c-1.072-0.094-2.158-0.055-3.236-0.018c-1.135,0.039-1.869,0.709-2.352,1.68c-0.266,0.521-0.51,1.055-0.719,1.6
				c-0.914,2.375-1.84,4.746-2.715,7.137c-1.467,4.01-2.578,8.09-2.377,12.422c0.063,1.389,0.332,2.734,0.934,3.99
				c0.832,1.738,2.17,2.871,4.098,3.201c1.664,0.287,3.254,0.002,4.764-0.734c2.121-1.037,3.752-2.643,5.166-4.498
				c0.115-0.154,0.238-0.303,0.365-0.463c0.057,0.072,0.074,0.086,0.076,0.1c0.074,0.25,0.133,0.498,0.209,0.744
				c0.752,2.355,2.113,4.145,4.621,4.768c1.666,0.416,3.313,0.18,4.91-0.432c2.248-0.859,4-2.383,5.555-4.166
				c0.285-0.326,0.555-0.664,0.881-1.057c0.096,0.359,0.166,0.623,0.238,0.887c1.035,3.617,3.992,5.486,7.691,4.84
				c3.1-0.543,5.391-2.381,7.393-4.67c0.215-0.238,0.414-0.49,0.67-0.795c0.193,0.629,0.332,1.176,0.529,1.699
				c0.797,2.109,2.248,3.494,4.525,3.818c1.59,0.225,3.121-0.068,4.564-0.779c2.334-1.145,4.09-2.928,5.574-5.02
				c0.164-0.234,0.336-0.461,0.553-0.762c0.152,0.313,0.26,0.541,0.373,0.768c0.881,1.766,2.141,3.195,3.838,4.215
				c2.867,1.719,5.982,2.049,9.17,1.33c6.535-1.475,10.381-5.832,12.467-11.98c0.148-0.445,0.012-0.816-0.33-1.115
				C247.017,195.112,245.378,195.467,244.882,196.543z M229.331,191.889c0.922-3.094,2.113-6.074,3.973-8.74
				c0.867-1.25,1.83-2.412,3.242-3.102c0.029-0.012,0.061-0.031,0.09-0.045c1.42-0.656,2.285-0.127,2.336,1.443
				c0.049,1.592-0.383,3.096-0.922,4.57c-1.227,3.352-3.199,6.143-6.199,8.143c-0.982,0.652-2.037,1.123-3.414,1.223
				C228.749,194.141,228.999,193.004,229.331,191.889z M425.079,193.372c-1.115-0.191-1.805,0.232-2.301,1.264
				c-0.842,1.748-1.689,3.498-2.625,5.197c-0.598,1.088-1.396,2.053-2.49,2.709c-1.496,0.896-2.813,0.375-3.141-1.33
				c-0.164-0.842-0.215-1.775-0.031-2.605c0.533-2.449,1.102-4.898,1.85-7.291c1.209-3.865,2.881-7.549,4.857-11.086
				c0.248-0.443,0.254-0.818-0.088-1.17c-0.576-0.59-1.135-1.205-1.773-1.717c-0.293-0.232-0.754-0.305-1.148-0.344
				c-0.35-0.035-0.713,0.088-1.072,0.117c-1.078,0.09-2.158,0.256-3.232,0.232c-2.117-0.049-2.906-1-2.447-3.053
				c0.248-1.105,0.773-2.154,1.225-3.209c0.311-0.729,0.252-1.105-0.506-1.291c-0.756-0.184-1.568-0.307-2.334-0.244
				c-2.119,0.174-3.863,1.02-4.693,3.141c-0.676,1.725-0.475,3.443,0.523,4.939c0.645,0.961,0.59,1.771,0.277,2.773
				c-1.547,4.967-3.363,9.83-5.434,14.596c-0.809,1.863-1.883,3.563-3.342,4.984c-1.775,1.729-3.9,2.734-6.379,2.955
				c-1.275,0.115-2.537,0-3.611-0.756c-2.188-1.539-2.719-3.83-2.838-6.336c0.166-0.029,0.266-0.051,0.365-0.063
				c2.762-0.32,5.387-1.09,7.832-2.436c3.059-1.686,5.533-3.949,7.01-7.18c1.248-2.729,1.42-5.498,0.268-8.307
				c-1.355-3.297-4.357-4.875-7.84-4.145c-2.264,0.477-4.121,1.691-5.781,3.234c-2.896,2.693-4.93,5.982-6.492,9.586
				c-0.941,2.166-1.678,4.398-2.047,6.744c-0.109,0.705-0.227,1.438-0.52,2.076c-0.611,1.334-1.488,2.514-2.506,3.576
				c-2.813,2.936-6.268,4.654-10.246,5.361c-0.672,0.119-1.357,0.168-2.172,0.266c0.145-0.158,0.164-0.189,0.189-0.205
				c3.57-2.072,6.105-5.107,7.977-8.713c2.195-4.227,3.537-8.713,3.805-13.498c0.102-1.754-0.045-3.471-0.65-5.127
				c-1.029-2.811-3.389-4.043-6.293-3.305c-1.654,0.42-3.072,1.291-4.35,2.387c-0.924,0.791-1.781,1.662-2.752,2.574
				c-0.223-0.467-0.424-0.898-0.637-1.324c-0.502-0.998-0.967-2.018-1.531-2.98c-0.646-1.107-1.826-1.105-2.545-0.039
				c-0.18,0.266-0.32,0.568-0.43,0.875c-2.225,6.234-4.457,12.467-6.656,18.715c-0.697,1.99-1.527,3.908-2.734,5.643
				c-0.891,1.279-1.859,2.498-3.346,3.135c-1.607,0.689-2.857,0.035-3.184-1.686c-0.326-1.727-0.123-3.449,0.381-5.1
				c0.906-2.959,1.867-5.902,2.902-8.816c2.289-6.451,4.645-12.879,6.965-19.318c0.244-0.68,0.457-1.371,0.625-2.07
				c0.254-1.061-0.109-1.637-1.178-1.713c-1.006-0.07-2.027-0.025-3.039,0.037c-0.998,0.064-1.75,0.594-2.215,1.48
				c-0.295,0.563-0.582,1.135-0.801,1.73c-1.754,4.777-3.52,9.553-5.223,14.348c-1.135,3.193-2.221,6.404-3.232,9.635
				c-0.537,1.703-0.865,3.461-1.76,5.045c-1.186,2.098-2.609,3.961-4.703,5.23c-1.691,1.029-3.531,1.527-5.508,1.455
				c-1.648-0.061-2.975-0.773-3.92-2.143c-1.029-1.496-1.402-3.174-1.414-4.877c1.5-0.336,2.951-0.564,4.338-0.994
				c4.164-1.291,7.697-3.51,10.053-7.287c1.715-2.748,2.377-5.711,1.391-8.883c-0.809-2.59-2.35-4.502-5.16-5.086
				c-1.736-0.361-3.389-0.045-4.977,0.672c-2.408,1.09-4.293,2.84-5.934,4.859c-2.596,3.191-4.406,6.807-5.629,10.717
				c-0.797,2.551-1.195,5.148-0.836,7.828c0.699,5.215,4.57,8.961,9.799,9.363c4.014,0.309,7.629-0.791,10.77-3.332
				c0.861-0.697,1.631-1.508,2.441-2.268c0.18,0.584,0.322,1.188,0.543,1.762c0.848,2.232,2.4,3.619,4.832,3.852
				c1.789,0.172,3.443-0.299,4.986-1.197c0.123-0.072,0.256-0.131,0.469-0.24c-0.076,0.264-0.117,0.426-0.174,0.582
				c-1.104,3.057-2.217,6.111-3.313,9.172c-0.529,1.488-1.1,2.977-1.117,4.59c-0.012,1.061,0.508,1.6,1.563,1.645
				c0.654,0.027,1.311,0.023,1.963-0.006c1.273-0.053,2.246-0.584,2.746-1.818c0.121-0.303,0.283-0.594,0.395-0.898
				c1.412-3.84,2.816-7.686,4.225-11.529c0.156-0.426,0.314-0.854,0.479-1.303c0.211,0.092,0.34,0.137,0.459,0.203
				c1.896,1.031,3.957,1.486,6.084,1.615c3.975,0.24,7.816-0.422,11.521-1.863c3.195-1.24,6.09-2.955,8.494-5.434
				c0.219-0.229,0.436-0.463,0.699-0.742c0.094,0.232,0.16,0.389,0.221,0.545c0.832,2.137,2.201,3.842,4.162,5.037
				c2.871,1.75,6,2.049,9.215,1.367c5.52-1.174,9.256-4.623,11.549-9.637c2.354-5.145,4.406-10.424,6.148-15.813
				c0.135-0.42,0.318-0.455,0.713-0.359c1.082,0.266,2.176,0.492,3.271,0.691c0.393,0.07,0.41,0.211,0.262,0.514
				c-0.324,0.662-0.65,1.326-0.951,2.002c-1.797,4.014-3.387,8.092-4.006,12.482c-0.299,2.115-0.283,4.217,0.453,6.264
				c1.205,3.346,4.121,4.85,7.527,3.855c2.074-0.605,3.689-1.9,5.059-3.51c2.082-2.445,3.471-5.275,4.439-8.322
				C426.405,194.112,426.034,193.538,425.079,193.372z M384.681,191.668c0.953-3.773,2.256-7.398,4.479-10.635
				c0.861-1.256,1.828-2.414,3.236-3.109c0.059-0.029,0.121-0.061,0.186-0.088c1.34-0.59,2.23-0.109,2.229,1.348
				c0,1.07-0.15,2.166-0.422,3.201c-0.838,3.172-2.4,5.953-4.826,8.197c-1.391,1.287-2.914,2.363-4.863,2.635
				c-0.064,0.01-0.135,0.002-0.316,0.002C384.485,192.667,384.556,192.161,384.681,191.668z M317.798,189.749
				c0.924-3.094,2.113-6.072,3.973-8.74c0.871-1.248,1.834-2.41,3.246-3.098c0.045-0.021,0.094-0.045,0.141-0.066
				c1.357-0.607,2.256-0.111,2.254,1.371c0,1.018-0.139,2.063-0.398,3.047c-0.998,3.785-2.938,6.984-6.109,9.357
				c-1.068,0.801-2.229,1.426-3.586,1.596c-0.08,0.01-0.162,0-0.408,0C317.218,192.004,317.468,190.864,317.798,189.749z
				 M357.874,202.065c-0.973,0.537-1.994,0.879-3.113,0.582c-0.875-0.232-1.457-0.889-1.986-1.566
				c-0.102-0.133-0.02-0.463,0.057-0.674c1.023-2.867,2.059-5.729,3.1-8.588c1.107-3.043,2.42-5.994,4.131-8.752
				c1.021-1.645,2.148-3.213,3.746-4.346c0.574-0.41,1.26-0.709,1.938-0.918c0.877-0.271,1.461,0.025,1.727,0.912
				c0.246,0.828,0.32,1.707,0.467,2.564c-0.166,3.014-0.918,5.867-1.891,8.668c-1.082,3.137-2.453,6.131-4.502,8.77
				C360.515,200.043,359.362,201.243,357.874,202.065z M314.071,165.436c0.311-0.992-0.064-1.445-1.094-1.475
				c-0.91-0.027-1.826-0.031-2.734,0.01c-1.006,0.047-1.963,0.275-2.572,1.184c-0.266,0.396-0.492,0.832-0.658,1.277
				c-0.91,2.434-1.799,4.873-2.682,7.314c-1.881,5.191-3.762,10.381-5.623,15.578c-0.15,0.418-0.369,0.537-0.789,0.533
				c-3.045-0.014-6.092-0.006-9.135-0.01c-0.182,0-0.365-0.02-0.633-0.035c0.469-1.324,0.902-2.535,1.33-3.75
				c1.756-4.998,3.518-9.992,5.264-14.994c0.658-1.881,1.305-3.768,1.895-5.674c0.291-0.955-0.086-1.43-1.096-1.43
				c-2.268,0-4.543-0.045-6.805,0.102c-3.828,0.246-7.438,1.338-10.777,3.24c-3.549,2.023-6.342,4.773-7.961,8.58
				c-1.012,2.377-1.527,4.857-1.18,7.449c0.4,2.982,3.246,5.535,6.111,5.545c1.502,0.006,1.727-0.277,1.168-1.66
				c-1.379-3.434-1.176-6.785,0.41-10.092c1.389-2.896,3.424-5.262,5.953-7.215c1.689-1.303,3.516-2.355,5.617-2.85
				c0.385-0.09,0.783-0.121,1.256-0.189c-0.082,0.27-0.125,0.416-0.176,0.561c-0.902,2.615-1.803,5.234-2.717,7.848
				c-1.896,5.424-3.77,10.854-5.711,16.258c-1.031,2.865-2.217,5.674-3.828,8.275c-0.734,1.191-1.578,2.301-2.756,3.1
				c-2.807,1.902-6.447,0.576-7.1-2.6c-0.369-1.805,0.162-3.436,1.064-4.977c0.754-1.291,1.785-2.346,2.916-3.313
				c0.422-0.359,0.41-0.639-0.049-0.932c-0.201-0.131-0.426-0.264-0.654-0.293c-0.932-0.127-1.873-0.326-2.803-0.287
				c-1.57,0.064-3.004,0.596-4.08,1.822c-3.344,3.803-2.742,10.014,1.301,13.061c3.156,2.381,6.648,2.496,10.24,1.23
				c2.771-0.979,4.924-2.848,6.77-5.082c1.928-2.338,3.455-4.926,4.67-7.695c0.305-0.697,0.658-1.014,1.479-0.996
				c2.926,0.059,5.852,0.023,8.775,0.023h0.717c-0.148,0.436-0.262,0.768-0.379,1.1c-1.025,2.922-2.08,5.834-3.057,8.77
				c-0.301,0.904-0.48,1.869-0.547,2.818c-0.068,1.016,0.541,1.553,1.559,1.58c0.656,0.018,1.309,0.016,1.961-0.002
				c1.172-0.037,2.098-0.5,2.627-1.598c0.236-0.496,0.492-0.988,0.682-1.504c1.998-5.492,3.994-10.988,5.98-16.488
				c1.984-5.5,3.967-11.002,5.938-16.506C312.823,169.188,313.481,167.323,314.071,165.436z"/>
		</g>
	</g>
	<g>
		<g>
			<path fill="#493327" d="M23.122,77.965c0,0-6.461,21.621,19.684,34.502L30.858,77.965H23.122z"/>
			<g>
				<path fill="#008AAB" d="M121.999,63.36c0,33.688-27.311,61-61,61c-33.686,0-60.998-27.313-60.998-61s27.313-61,60.998-61
					C94.688,2.36,121.999,29.672,121.999,63.36z"/>
				<g>
					<path fill="#493327" d="M62.593,7.727c0,0,1.934-4.588,4.896-5.496c0,0,5.795-2.84,9.217-2.111c0,0,8.131-0.432,11.523,3.08
						c0,0,4.625,3.271,4.988,5.117c0,0,7.043,8.666,8.162,15.539c0,0,5.27,11.602,4.129,26.164c0,0,0.908,19.555-5.438,41.527
						c0,0-7.078,19.625-1.963,29.375c0,0-0.895-0.645-1.336-1.766c0,0,1.582,5.006,2.541,6.164c0,0-6.666-0.639-9.537-7.566
						c0,0,0.154,3.758,3.74,6.645c0,0-2.029-0.715-2.732-1.828c0,0,3.318,4.338,4.461,4.615c0,0-3.045-0.119-5.336-2.84
						c0,0-10.93-5.725-12.494-15.625c0,0,16.447-29.211,14.342-54.814C91.757,53.907,92.788,16.934,62.593,7.727z"/>
					<path fill="#34261C" d="M88.114,93.266c0,0-3.494,8.285-2.262,14.961c0,0-1.596-0.781-1.961-4.945c0,0-1.693,4.223,0.227,8.189
						c0,0-3.635-6.289-0.402-14.416L88.114,93.266z"/>
					<path fill="#ECAC85" d="M26.034,63.149c-0.516-18.471,14.039-33.859,32.51-34.375c18.467-0.516,33.857,14.039,34.373,32.508
						c0,0,2.758,28.727-16.6,47.816c0,0-15.475,14.242-26.672,8.063c0,0-15.053-7.621-19.51-23.262
						C25.683,78.254,26.034,63.149,26.034,63.149z"/>
					<path fill="#D28E6C" d="M65.866,85.856c0,0,0.396,1.695,2.051,1.957c0,0,15.977,1.971,19.027,0.469l0.947-3.041
						C87.892,85.241,70.454,87.375,65.866,85.856z"/>
					<path fill="#D28E6C" d="M76.731,108.969c10.943-10.234,15.584-25.783,15.584-25.783L91.827,73.18l-5.482,13.514
						c1.006,3.199-6.92,18.338-11.254,23.252C75.101,110.295,76.396,109.284,76.731,108.969z"/>
					<path fill="#D28E6C" d="M53.663,70.965c-2.621-9.051-6.383-9.406-6.383-9.406l-10.301-0.752
						c1.707,1.164,3.135,2.627,3.135,2.627c2.088,0.287,4.158,2.135,4.158,2.135c-0.092,0.811-3.336,0.498-3.336,0.498
						c8.15,4.391,1.594,13.582,1.594,13.582c2.59,1.777,6.395-0.467,6.395-0.467c2.77-0.135-0.098,4.736-0.098,4.736
						c-5.723,2.658-15.133,0.762-17.566,0.201c-5.473-14.484,0.059-16.518,0.059-16.518c-1.629,0.398-1.688-1.605-1.688-1.605
						c-0.701-8.301,5.117-5.637,5.117-5.637l-1.631-2.113c-1.525-0.074-1.244-3.633-1.244-3.633
						c0.082-5.51,7.129-13.258,7.129-13.258c-4.121-0.703-9.506,7.078-9.506,7.078c-5.764,20.316-0.402,41.461-0.402,41.461
						c0.693,2.375,1.367,5.422,2.193,7.336c-0.445-5.193-1.174-8.363-0.174-10.406c12.336,3.039,19.434-1.221,19.434-1.221
						c1.189-0.9,4.115-7.736,4.115-7.736c2.285-5.029,5.85,0.645,5.85,0.645l0.404-4.109L53.663,70.965z"/>
					<path fill="#D28E6C" d="M86.634,42.469l-6.432-1.07c0,0,3.658,6.055,3.779,10.406c0,0,3.564,6.594,3.061,10.852
						c0,0-2.27-3.727-8.887-1.563c0,0-10.318,1.195-11.809,0.557c0,0-4.645,3.863-5.201,8.236l0.545,5.303
						c0,0,1.867-1.977,3.924,2.775c0,0,0.324-6.629,5.938-8.199c0,0,11.287-1.051,12.521,4.629c0,0-1.799,2.484-3.086,3.029
						c0,0,2.063,0.848,4.752-2.111c0,0,0.363,2.816,3.227,2.115l3.014-13.721L86.634,42.469z M87.259,68.932
						c0,0-11.764-3.857-16.539-2.65c0,0,9.627-5.758,14.014-2.711C84.733,63.571,87.677,65.637,87.259,68.932z"/>
					<path fill="#D8D5CC" d="M65.647,78.083c0,0,10.836,5.984,18.967-3.57c0,0-1.768-6.133-12.602-4.75
						C72.013,69.762,65.999,70.342,65.647,78.083z"/>
					<path fill="#6D5036" d="M68.003,74.254c-0.088-3.156,2.523-4.148,5.641-4.641c3.951-0.625,5.703,1.164,5.789,4.32
						c0.082,2.922-2.398,5.787-5.555,5.875S68.091,77.411,68.003,74.254z"/>
					<circle fill="#323536" cx="73.511" cy="74.048" r="2.884"/>
					<circle fill="#E7E7E6" cx="69.83" cy="73.223" r="1.132"/>
					<path fill="#D8D5CC" d="M49.122,77.473c0,0-9.346,6.699-18.264-4.541c0,0,1.689-4.939,11.066-4.096
						C44.729,69.088,48.64,69.395,49.122,77.473z"/>
					<path fill="#6D5036" d="M46.999,73.036c-0.09-3.156-2.648-4.027-5.791-4.348c-3.979-0.402-5.729,1.51-5.639,4.666
						c0.078,2.922,2.717,5.643,5.875,5.557C44.597,78.821,47.085,76.192,46.999,73.036z"/>
					<circle fill="#323536" cx="41.183" cy="73.3" r="2.884"/>
					<circle fill="#E7E7E6" cx="37.654" cy="72.42" r="1.132"/>
					<path fill="#2E2119" d="M48.687,62.065c0,0-1.225-2.4-2.93-2.584c0,0-7.568,0.172-12.652-1.93c0,0-2.031-0.793-4.324,4.297
						c0,0,1.852-2.912,5.094-1.65c3.242,1.264,4.613,1.92,10.211,1.646C44.085,61.844,47.749,61.627,48.687,62.065z"/>
					<path fill="#2E2119" d="M65.626,62.493c0,0,1.119-2.611,2.82-2.834c0,0,7.639,0.908,12.607-1.086c0,0,3.582-0.951,5.988,4.084
						c0,0-3.326-3.004-6.539-1.672c-3.215,1.332-4.678,1.336-10.277,1.186C70.226,62.17,66.556,62.034,65.626,62.493z"/>
					<path fill="#CF705F" d="M42.948,98.784c0,0,2.512,1.971,5.961,1.689c3.547-0.293,4.406-0.051,5.07,0.281
						c2.117,1.063,2.691,0.932,4.643,0.221c1.953-0.713,2.477-0.619,4.828-0.135c2.488,0.51,5.572,0.23,7.658-1.18
						c0,0-4.629,3.145-6.428,5.125c-1.799,1.984-3.873,3.857-7.361,3.492c0,0-0.703-0.254-2.008,0.016c0,0-3.133-0.027-5.918-2.887
						C49.394,105.407,45.634,100.795,42.948,98.784z"/>
					<path fill="#B25F53" d="M56.866,108.161c0,0,3.699,1.145,7.129-2.645c0,0,3.273-3.275,5.436-4.662c0,0-2.305,1.107-3.697,1.467
						C65.733,102.321,61.565,108.795,56.866,108.161z"/>
					<path fill="#B25F53" d="M44.733,100.29c0,0,6.414,2.758,10.928,2.941c3.238,0.133,7.549-0.738,13.227-2.27
						C68.888,100.961,55.731,108.5,44.733,100.29z"/>
					<path fill="#7E4A3C" stroke="#7E4A3C" stroke-width="0.1545" stroke-miterlimit="10" d="M50.067,89.309
						c0,0-2.844,3.404,1.375,4.949c0,0-3.326-0.719-2.76-3.324C48.794,90.413,49.208,89.702,50.067,89.309z"/>
					<path fill="#7E4A3C" stroke="#7E4A3C" stroke-width="0.1545" stroke-miterlimit="10" d="M62.604,89.579
						c0,0,3.025,3.238-1.098,5.016c0,0,3.279-0.902,2.568-3.473C63.935,90.608,63.483,89.922,62.604,89.579z"/>
					<path fill="#7E4A3C" d="M52.866,93.407c-0.355,0.029-1.285,0.344-1.449,0c-0.164-0.342,1.555-1.086,2.641,0.508
						C54.058,93.915,53.296,93.368,52.866,93.407z"/>
					<path fill="#7E4A3C" d="M58.198,94.069c0,0,1.035-1.768,2.588-0.729c0.246,0.164-0.445,0.326-1.307,0.268
						C59.118,93.583,58.571,93.575,58.198,94.069z"/>
					<path fill="#7E4A3C" stroke="#7E4A3C" stroke-width="0.1545" stroke-miterlimit="10" d="M54.302,94.333
						c0,0,1.695,1.59,3.508,0.107c0,0-1.207,1.561-2.553,0.793C54.993,95.083,54.331,94.661,54.302,94.333z"/>
					<g>
						<path fill="#7E4A3C" d="M71.053,99.827c0,0-0.409,0.223-1.124,0.612c-0.357,0.195-0.792,0.431-1.289,0.703
							c-0.251,0.132-0.511,0.287-0.797,0.425c-0.295,0.121-0.606,0.248-0.931,0.38c-0.651,0.259-1.351,0.559-2.103,0.841
							c-0.771,0.224-1.585,0.461-2.427,0.706c-0.847,0.223-1.751,0.334-2.656,0.512c-0.911,0.136-1.853,0.152-2.788,0.232
							c-0.936-0.063-1.879-0.051-2.792-0.192c-0.913-0.139-1.813-0.265-2.657-0.52c-0.86-0.188-1.65-0.507-2.408-0.774
							c-0.737-0.319-1.443-0.611-2.053-0.957c-0.307-0.17-0.6-0.334-0.879-0.49c-0.266-0.178-0.518-0.346-0.754-0.504
							c-0.474-0.316-0.858-0.632-1.178-0.884c-0.63-0.52-0.948-0.862-0.948-0.862l0.017-0.017c0,0,0.326,0.332,0.967,0.833
							c0.326,0.243,0.716,0.547,1.196,0.848c0.239,0.151,0.494,0.312,0.763,0.482c0.279,0.151,0.573,0.31,0.88,0.476
							c0.609,0.338,1.313,0.621,2.047,0.93c0.756,0.258,1.542,0.567,2.396,0.745c0.838,0.245,1.732,0.361,2.638,0.49
							c0.905,0.131,1.839,0.11,2.766,0.164c0.925-0.073,1.859-0.078,2.764-0.204c0.898-0.168,1.797-0.269,2.641-0.482
							c0.839-0.235,1.65-0.462,2.419-0.678c0.75-0.273,1.447-0.564,2.097-0.815c0.324-0.128,0.635-0.25,0.931-0.367
							c0.289-0.13,0.553-0.278,0.807-0.403c0.504-0.258,0.945-0.482,1.307-0.667c0.725-0.37,1.139-0.582,1.139-0.582L71.053,99.827z
							"/>
					</g>
					<path fill="#34261C" d="M103.104,52.897c0.16-3.869-2.131-8.482-2.131-8.482s1.225-3.203-0.422-5.398
						c-1.645-2.195-3.076-6.406-3.076-6.406c0.781-5.277-2.535-7.736-2.535-7.736c0.297-1.861-1.66-5.518-1.66-5.518
						c-2.105-4.85-6.391-3.262-6.391-3.262c-0.123-0.666-5.238-4.904-5.238-4.904c-2.422-1.891-4.947-0.068-4.947-0.068
						c-0.973-1.621-5.633-2.469-5.633-2.469c-3.02-2.906-6.131-1.686-6.131-1.686c-1.26-0.893-2.055-0.791-2.055-0.791
						c-3.473,0.172-3.674,1.336-3.674,1.336c-0.018-0.693-1.914-2.109-1.914-2.109c-3.338-0.602-6.59,2.039-6.59,2.039
						c-4.764-1.723-6.943,0.504-6.943,0.504c-3.301,0.785-5.695,5.439-5.695,5.439c-2.277,1.506-2.746,3.117-2.746,3.117
						c-8.684,2.715-9.688,9.287-9.688,9.287c-3.234,2.254-2.139,6.449-2.139,6.449c-0.512,0.117-1.547,1.795-1.547,1.795
						c0.02,0.721-0.479,3.209-0.479,3.209c-3.518,8.754-0.295,13.402-0.295,13.402c-2.502,4.502,0.25,7.105,0.25,7.105
						c-0.371,3.309,2.877,5.227,2.877,5.227c-0.391,0.732-0.844,3.23-0.844,3.23l-0.289,2.418
						c-4.738,33.316,7.178,53.957,7.178,53.957c-4.5-9.818-5.588-32.154-5.553-32.67c0.037-0.518,0.92-2.139,0.92-2.139
						c-0.346,9.801,6.895,28.012,6.895,28.012c-6.83-21.35-4.895-29.277-4.895-29.277c0.004,0.156,0.09-2.184-0.078-3.766
						c-0.4-3.773-0.725-7.559-0.324-11.348c0.037-0.332,0.109-0.654,0.223-0.951c-0.068-1.854-0.07-3.021-0.07-3.021l0.096-2.332
						c-0.393-3.029,1.313-8.168,1.475-11.623c0.162-3.457,1.6-5.455,1.6-5.455c2.146-4.336,7.715-6.037,7.715-6.037
						c0.082-0.775,4.117-3.877,4.117-3.877c1.973,0.512,5.217-1.434,5.217-1.434c0.816,1.574,3.895,1.078,3.895,1.078
						c5.211-1.59,11.764-1.258,11.764-1.258c2.314,3.543,4.275,1.789,4.275,1.789c4.729,3.27,8.488,1.359,8.488,1.359
						c1.877,0.773,5.084,3.053,5.084,3.053c1.9-0.205,3.18,3.158,3.703,3.504c0.525,0.346,1.748-0.201,1.748-0.201
						s1.279,3.363,1.455,5.986s1.287,1.82,1.287,1.82c0.236,1.076,1.531,12.426,1.531,12.426c0.502,3.182,0.955,15.74,0.955,15.74
						c-0.012,0.676-0.238,9.047-0.389,9.328C91.435,92.317,91.405,93,91.405,93c-0.256,3.77-7.814,28.352-7.814,28.352
						c4.955-7.039,9.74-23.973,9.74-23.973c0.086,10.508-8.086,28.605-8.086,28.605c13.15-23.66,11.578-54.402,11.578-54.402
						c-0.148-2.508,0.848-2.844,0.848-2.844s0.82,0.324,1.771-0.242c0.951-0.568,0.451-4.613,0.451-4.613
						c1.893-0.053,3.564-2.418,3.564-2.418C105.015,57.674,103.104,52.897,103.104,52.897z M24.862,87.696
						c-0.26-1-0.008-5.773-0.008-5.773c0.098-0.234,0.848-0.125,0.848-0.125C25.575,82.754,24.862,87.696,24.862,87.696z
						 M43.901,11.883c-0.457-0.658-2.127-0.535-2.127-0.535c1.754-1.801,4.486-1.695,4.486-1.695
						C45.448,10.061,43.901,11.883,43.901,11.883z M98.663,60.465c0,0,2.73-1.027,4.143-3.902
						C102.806,56.563,102.054,61.016,98.663,60.465z"/>
					<path fill="#24272A" d="M93.681,69.313c0,0-8.078-4.18-24.568-2.406c0,0-5.318,0.535-6.742,2.119c0,0-1.105,0.572-2.031,0.561
						c0,0-6.881-0.004-8.049-0.318c0,0-1.041-0.73-3.061-1.654c-3.043-1.391-10.939-2.426-18.566-1.953
						c-3.361,0.205-6.068,1.129-9.303,1.727c0,0-0.402,5.035-0.232,5.57c0,0,1.475,0.191,2.42,0.783c0,0,0.68,10.57,3.873,11.408
						c0,0,13.443,2.641,20.639,0.121c0,0,4.91-1.297,5.518-10.047c0,0,2.865-2.555,6.346,0.285c0,0-0.641,10.299,8.354,11.285
						c0,0,10.32,1.488,17.625,0.125c0,0,3.793,0.205,5.025-11.035c0,0,0.434-1.096,2.447-0.92
						C93.374,74.963,93.917,72.243,93.681,69.313z M50.933,75.993c-0.367,6.27-4.775,7.551-4.775,7.551
						c-11.387,1.902-17.91-0.619-17.91-0.619c-2.553-1.436-2.744-9.662-2.744-9.662c0.203-3.871,1.371-4.43,2.652-4.674
						c4.998-0.951,16.625,0.232,19.199,1.049c1.947,0.619,2.971,1.193,3.43,2.418C51.241,73.278,50.933,75.993,50.933,75.993z
						 M88.651,74.836c0,0-0.604,8.205-3.328,9.504c0,0-6.906,2.172-18.65-0.338c0,0-4.52-1.518-4.592-7.799
						c0,0-0.191-2.727,0.348-3.926c0.537-1.199,1.627-1.717,3.684-2.23c2.717-0.678,14.861-1.238,20.01-0.021
						C87.442,70.338,88.63,70.959,88.651,74.836z"/>
					<path fill="#34261C" d="M85.202,74.34c0,0-0.152-0.381-0.572-1.125c-0.215-0.32-0.496-0.699-0.869-1.078
						c-0.191-0.184-0.383-0.395-0.621-0.57c-0.23-0.188-0.467-0.389-0.746-0.553c-0.135-0.088-0.273-0.174-0.416-0.268
						c-0.141-0.09-0.297-0.154-0.449-0.234c-0.156-0.078-0.313-0.156-0.473-0.234c-0.156-0.082-0.332-0.133-0.5-0.199
						c-0.342-0.125-0.688-0.27-1.061-0.348c-0.184-0.047-0.369-0.094-0.559-0.141l-0.279-0.07l-0.291-0.047
						c-0.385-0.055-0.777-0.121-1.176-0.168c-0.398-0.023-0.803-0.043-1.211-0.066l-0.305-0.016l-0.305,0.012
						c-0.205,0.006-0.41,0.014-0.613,0.02c-0.41,0.02-0.822,0.014-1.229,0.074c-0.406,0.047-0.813,0.094-1.219,0.141
						c-0.396,0.031-0.836,0.121-1.219,0.252c-0.787,0.25-1.518,0.623-2.141,1.088c-0.164,0.105-0.303,0.246-0.451,0.363
						l-0.219,0.184c-0.068,0.066-0.131,0.135-0.197,0.203c-0.129,0.133-0.256,0.268-0.383,0.398
						c-0.109,0.146-0.219,0.289-0.326,0.432c-0.424,0.568-0.734,1.166-0.963,1.734c-0.135,0.275-0.205,0.564-0.287,0.83
						c-0.072,0.27-0.17,0.516-0.199,0.764c-0.043,0.244-0.086,0.473-0.121,0.684c-0.02,0.105-0.037,0.207-0.055,0.303
						c-0.01,0.098-0.016,0.191-0.021,0.281c-0.051,0.707-0.08,1.109-0.08,1.109s0.049-0.4,0.133-1.105
						c0.012-0.086,0.02-0.18,0.035-0.275c0.021-0.096,0.043-0.193,0.068-0.299c0.047-0.207,0.096-0.43,0.152-0.67
						c0.041-0.244,0.148-0.482,0.234-0.744c0.092-0.258,0.174-0.535,0.32-0.801c0.248-0.543,0.574-1.109,1.01-1.637
						c0.109-0.129,0.219-0.262,0.334-0.396c0.125-0.119,0.254-0.242,0.383-0.365c0.064-0.059,0.129-0.125,0.195-0.184l0.217-0.164
						c0.148-0.105,0.281-0.23,0.443-0.322c0.611-0.412,1.316-0.73,2.059-0.928c0.377-0.105,0.736-0.164,1.143-0.18
						c0.398-0.027,0.797-0.051,1.195-0.078c0.398-0.041,0.801-0.016,1.195-0.016c0.197,0.004,0.395,0.006,0.594,0.008l0.295,0.004
						l0.291,0.031c0.389,0.039,0.771,0.078,1.152,0.115c0.375,0.064,0.742,0.145,1.102,0.213l0.27,0.055l0.258,0.08
						c0.172,0.053,0.342,0.104,0.51,0.156c0.344,0.088,0.652,0.236,0.957,0.363c0.15,0.07,0.307,0.119,0.447,0.201
						c0.139,0.078,0.275,0.156,0.412,0.23c0.131,0.08,0.271,0.141,0.393,0.23c0.121,0.086,0.238,0.172,0.354,0.254
						c0.24,0.154,0.436,0.342,0.627,0.512c0.203,0.162,0.355,0.352,0.514,0.516c0.303,0.34,0.521,0.668,0.688,0.941
						c0.162,0.277,0.262,0.5,0.324,0.652c0.023,0.066,0.041,0.117,0.055,0.152c0.01,0.031,0.064,0.188,0.098,0.281
						c-0.035,0.027-0.068,0.057-0.1,0.088c-0.195,0.207-0.502,0.561-0.797,0.826c-0.074,0.066-0.152,0.133-0.232,0.201
						c-0.08,0.064-0.166,0.131-0.256,0.197c-0.172,0.137-0.357,0.281-0.547,0.432c-0.4,0.275-0.822,0.586-1.301,0.863
						c-0.117,0.072-0.238,0.145-0.359,0.219c-0.125,0.064-0.25,0.131-0.381,0.199c-0.127,0.068-0.258,0.135-0.387,0.205
						c-0.135,0.063-0.27,0.125-0.406,0.188s-0.273,0.125-0.412,0.188c-0.143,0.055-0.285,0.109-0.432,0.164
						c-0.285,0.115-0.584,0.211-0.883,0.305c-0.6,0.195-1.227,0.328-1.855,0.441c-0.631,0.098-1.268,0.18-1.896,0.193
						c-0.631,0.029-1.254,0.018-1.854-0.023c-0.602-0.047-1.182-0.109-1.73-0.201c-0.547-0.09-1.061-0.191-1.535-0.309
						c-0.943-0.23-1.721-0.473-2.256-0.676c-0.266-0.102-0.475-0.18-0.617-0.238c-0.143-0.061-0.219-0.094-0.219-0.094
						s0.277,0.184,0.789,0.441c0.516,0.252,1.262,0.605,2.207,0.906c0.471,0.156,0.988,0.301,1.543,0.422
						c0.559,0.123,1.15,0.225,1.77,0.289c0.621,0.059,1.266,0.105,1.922,0.078c0.654-0.008,1.32-0.086,1.98-0.18
						c0.656-0.125,1.309-0.273,1.934-0.482c0.154-0.053,0.309-0.104,0.465-0.154c0.152-0.055,0.301-0.123,0.449-0.184
						c0.148-0.063,0.297-0.125,0.441-0.188c0.143-0.07,0.285-0.139,0.424-0.209c0.141-0.068,0.279-0.139,0.414-0.209
						c0.135-0.078,0.264-0.152,0.393-0.23c0.131-0.074,0.258-0.152,0.385-0.227c0.119-0.082,0.24-0.164,0.357-0.246
						c0.479-0.311,0.887-0.664,1.273-0.977c0.359-0.34,0.707-0.633,0.969-0.938c0.271-0.301,0.52-0.543,0.695-0.773
						c0.242-0.305,0.684-0.609,0.941-0.771L85.202,74.34z"/>
					<path fill="#34261C" d="M49.112,77.422l-0.008-0.012c0,0-0.266,0.191-0.768,0.461c-0.498,0.27-1.24,0.613-2.168,0.914
						c-0.467,0.145-0.977,0.281-1.525,0.383c-0.551,0.094-1.133,0.18-1.742,0.195c-0.305,0.023-0.615,0.004-0.93,0.008
						c-0.311-0.027-0.631-0.029-0.947-0.078c-0.156-0.021-0.316-0.043-0.477-0.063l-0.477-0.092
						c-0.318-0.053-0.629-0.152-0.943-0.229c-0.313-0.094-0.619-0.199-0.924-0.305c-0.299-0.129-0.604-0.234-0.889-0.375
						c-0.582-0.27-1.133-0.574-1.648-0.902c-0.25-0.17-0.508-0.324-0.744-0.5c-0.234-0.178-0.463-0.35-0.686-0.518
						c-0.424-0.365-0.84-0.693-1.184-1.041c-0.174-0.168-0.344-0.33-0.504-0.484c-0.152-0.162-0.297-0.316-0.43-0.461
						c-0.275-0.289-0.508-0.543-0.686-0.766c-0.047-0.057-0.09-0.109-0.133-0.158l0.014,0.01c0,0,0.119-0.332,0.137-0.375
						c0.016-0.031,0.021-0.066,0.059-0.137c0.068-0.139,0.174-0.352,0.355-0.602c0.172-0.254,0.424-0.543,0.738-0.852
						c0.156-0.156,0.352-0.293,0.539-0.457c0.205-0.145,0.426-0.291,0.656-0.443c0.246-0.127,0.496-0.275,0.77-0.404
						c0.283-0.113,0.566-0.248,0.873-0.355c0.311-0.092,0.629-0.199,0.959-0.289c0.338-0.07,0.682-0.145,1.033-0.219
						c0.357-0.045,0.721-0.09,1.09-0.139c0.184-0.029,0.371-0.037,0.561-0.043c0.188-0.008,0.377-0.016,0.568-0.023
						c0.191-0.01,0.381-0.018,0.574-0.025l0.58,0.016c0.387,0.016,0.777,0.027,1.166,0.039c0.789,0.051,1.557,0.115,2.287,0.297
						c0.727,0.18,1.41,0.48,1.979,0.91c0.561,0.441,1.014,0.977,1.361,1.543c0.174,0.281,0.303,0.582,0.451,0.861
						c0.119,0.291,0.221,0.58,0.326,0.854c0.098,0.275,0.156,0.553,0.232,0.811c0.037,0.129,0.07,0.256,0.104,0.377
						c0.023,0.125,0.047,0.246,0.07,0.365c0.084,0.471,0.176,0.881,0.203,1.227C49.067,77.032,49.112,77.422,49.112,77.422
						s-0.027-0.395-0.072-1.082c-0.01-0.348-0.084-0.762-0.145-1.242c-0.018-0.117-0.035-0.242-0.051-0.369
						c-0.029-0.127-0.057-0.256-0.088-0.387c-0.061-0.264-0.107-0.549-0.193-0.834c-0.096-0.283-0.184-0.582-0.293-0.887
						c-0.135-0.293-0.252-0.609-0.422-0.91c-0.334-0.609-0.783-1.203-1.363-1.709c-0.594-0.494-1.322-0.857-2.092-1.088
						c-0.77-0.232-1.58-0.336-2.361-0.426c-0.4-0.035-0.799-0.066-1.195-0.1c-0.199-0.016-0.398-0.031-0.596-0.047
						c-0.199-0.002-0.398-0.002-0.596-0.004c-0.197,0-0.396-0.002-0.594-0.002c-0.193-0.004-0.391-0.004-0.586,0.016
						c-0.389,0.031-0.773,0.055-1.152,0.09c-0.377,0.061-0.75,0.121-1.111,0.178c-0.361,0.08-0.711,0.178-1.053,0.264
						c-0.34,0.1-0.662,0.232-0.979,0.342c-0.309,0.129-0.602,0.279-0.885,0.412c-0.271,0.16-0.533,0.313-0.775,0.471
						c-0.23,0.178-0.461,0.33-0.654,0.504c-0.395,0.344-0.713,0.676-0.941,0.982c-0.24,0.297-0.393,0.566-0.496,0.758l-0.07,0.172
						l0.068,0.063c-0.088-0.027,0.695,0.684,0.953,1.027c0.17,0.23,0.393,0.498,0.652,0.801c0.129,0.15,0.268,0.313,0.412,0.484
						c0.158,0.16,0.322,0.328,0.494,0.504c0.336,0.363,0.746,0.705,1.164,1.086c0.223,0.176,0.451,0.359,0.682,0.545
						c0.232,0.188,0.496,0.344,0.75,0.521c0.52,0.338,1.078,0.656,1.668,0.938c0.293,0.148,0.604,0.26,0.906,0.391
						c0.313,0.113,0.625,0.223,0.943,0.324c0.324,0.074,0.643,0.176,0.973,0.223l0.488,0.09c0.162,0.02,0.326,0.039,0.49,0.059
						c0.324,0.049,0.65,0.047,0.971,0.07c0.318-0.004,0.637,0.012,0.945-0.016c0.625-0.02,1.221-0.127,1.775-0.238
						c0.559-0.121,1.072-0.275,1.541-0.436c0.934-0.326,1.66-0.725,2.152-1.018s0.742-0.504,0.742-0.504L49.112,77.422z"/>
					<path fill="#493327" d="M96.815,33.875c-6.744,7.609-18.004,1.121-18.004,1.121c-11.209-4.686-15.572,1.414-15.572,1.414
						s1.934,2.883,3.461,2.172c0,0,0.904-4.51,14.184,0.48c0,0,8.648,1.613,13.074-2.375L96.815,33.875z"/>
					<path fill="#493327" d="M41.563,38.922c0,0-1.5-2.07-4.283-2.047c-2.631,0.027-7.324-0.361-11.758,12.594
						c0,0-4.766,9.664-8.402,1.225c0,0,2.93,9.1,8.424,4.131c1.668-1.506,3.467-3.199,5.443-7.158c0,0,1.645-3.395,6.051-4.793
						C37.038,42.874,41.276,39.741,41.563,38.922z"/>
					<g>
						<path fill="none" d="M26.999,109.817"/>
					</g>
					<g>
						<path fill="none" d="M27.483,60.645"/>
					</g>
					<g>
						<path fill="none" d="M87.909,107.192"/>
					</g>
					<g>
						<path fill="none" d="M91.481,60.641"/>
					</g>
					<path fill="#C3785F" d="M77.151,112.825"/>
					<path fill="#493327" d="M37.89,24.532c0,0-0.123,3.945,2.084,5.43c0,0-0.982-1.906-0.465-2.73c0,0,2.305,4.998,4.336,5.715
						c0,0-3.225-4.703-2.496-6.27c0,0,2.098,5.895,6.463,7.162c0,0-4.711-5.047-5.082-8.822c0,0,2.256,4.574,3.416,4.617
						c0,0-5.303-9.82-3.65-13.035c0,0-1.223,1.734-0.723,5.816c0,0-1.037-1.131-1.246-3.135c0,0-0.496,1.637-0.279,3.873
						c0,0-1.824-1.65-1.648-3.664c0,0-0.652,1.563,0.346,4.164c0,0-1.27-0.738-1.133-1.668
						C37.812,21.985,37.804,23.149,37.89,24.532z"/>
					<path fill="#493327" d="M57.308,16.84c0,0-1.561,7.465-1.305,12.609c0,0,0.865-4.043,2.574-5.531c0,0,0.617,5.648-1.166,7.965
						c0,0,2.281-3.465,3.113-6.887c0,0,1.035,3.887-0.291,8.047c0,0,3-3.281,4.613-8.271c0,0,0.541,4.107-1.338,6.943
						c0,0,4.4-2.906,4.844-5.494c0,0-0.588,3.416-1.885,4.998c0,0,4.539-2.238,5.48-5.461c0,0-0.176,2.994-2.477,5.996
						c0,0,6.613-3.586,6.992-11.633c0,0-1.967,3.352-3.305,3.389c0,0,1.725-4.686,0.316-7.119c0,0-0.896,4.867-2.898,6.881
						c0,0,1.711-5.096,0.154-9.176c0,0-0.16,6.652-2.52,9.396c0,0,1.275-5.961-0.59-10.031c0,0-0.188,4.848-1.48,8.08
						c0,0,0.781-6.822-0.275-9.783c0,0-1.135,8.895-2.838,10.643c0,0,1.186-5.547,0.381-8.514c0,0-1.477,6.227-3.186,7.715
						c0,0,1.268-6.32,0.068-8.656c0,0-0.262,6.082-1.832,7.779C58.46,20.725,57.132,17.875,57.308,16.84z"/>
					<path fill="#34261C" d="M72.755,4.852c0,0,6.217-2.561,12.1-0.338c0,0-3.107-0.619-4.416,0.502c0,0,6.949-0.246,11.691,5.34
						c0,0-8.65-5.271-14.986-1.539c0,0,0.006-1.598,1.791-2.266c0,0-4.627,0.336-5.559,2.035c0,0,1.479-2.385,3.824-3.328
						C77.2,5.258,74.536,4.012,72.755,4.852z"/>
					<path fill="#101418" d="M27.792,68.641c0,0-2.582-0.414-3.48,3.436c-0.895,3.852,2.184,10.582,3.639,10.641
						c0,0-2.768-2.445-2.305-10.9C25.646,71.817,26.065,68.885,27.792,68.641z"/>
					<path fill="#101418" d="M53.577,75.223c0,0,1.336-2.797,6.209-1.719c0,0,0.018,1.105,0.137,2.004
						C59.923,75.508,56.608,72.715,53.577,75.223z"/>
					<path fill="#101418" d="M68.228,69.741c0,0-5.318-0.182-6.58,1.752c-1.26,1.938-0.051,9.344,3.035,11.236
						c0,0-3.018-1.396-2.613-8.479C62.069,74.25,61.464,69.764,68.228,69.741z"/>
					<path fill="#101418" d="M90.317,79.774c0,0-1.984,5.221-3.65,6.121c-1.939,1.047-3.555,1.215-8.674,1.598
						c0,0,8.051-0.037,9.047-1.012C87.04,86.481,89.345,85.03,90.317,79.774z"/>
					<path fill="#101418" d="M90.927,75.883c0,0,0.291-1.363,0.141-1.957c0,0,2.102-0.449,2.443,0.191l-0.137,0.846
						C93.374,74.963,91.53,74.745,90.927,75.883z"/>
					<path fill="#101418" d="M52.894,79.051c0,0-1.742,5.555-9.35,7.137c0,0,5.195-0.145,6.945-2.551
						C50.489,83.637,52.604,81.245,52.894,79.051z"/>
					<path fill="#34261C" d="M39.083,41.293c0,0-5.533-1.705-8.242,3.389c-1.373,2.584-4.139,8.639-7.719,9.615
						c0,0,3.609,0.473,6.771-4.627c0,0,1.688-5.139,7.145-6.797L39.083,41.293z"/>
				</g>
			</g>
		</g>
	</g>
</g>
</svg>
